<mxfile host="app.diagrams.net" modified="2021-01-31T07:11:42.062Z" agent="5.0 (Macintosh; Intel Mac OS X 11_1_0) AppleWebKit/537.36 (KHTML, like Gecko) Chrome/88.0.4324.96 Safari/537.36" etag="bfQl6uRmiN36FwF9ETwn" version="14.2.9" type="github">
  <diagram id="Qvk_h40rLohnIBOhJ2qY" name="第 1 页">
    <mxGraphModel dx="946" dy="614" grid="1" gridSize="10" guides="1" tooltips="1" connect="1" arrows="1" fold="1" page="1" pageScale="1" pageWidth="1169" pageHeight="827" background="#FFFFFF" math="0" shadow="0">
      <root>
        <mxCell id="0" />
        <mxCell id="1" parent="0" />
        <mxCell id="IBMUOrXllXBi6DZzjjCA-20" value="" style="edgeStyle=orthogonalEdgeStyle;rounded=1;sketch=1;orthogonalLoop=1;jettySize=auto;html=1;" edge="1" parent="1">
          <mxGeometry relative="1" as="geometry">
            <mxPoint x="159" y="640" as="sourcePoint" />
            <mxPoint x="249" y="640" as="targetPoint" />
          </mxGeometry>
        </mxCell>
        <mxCell id="IBMUOrXllXBi6DZzjjCA-18" value="工作目录" style="rounded=0;whiteSpace=wrap;html=1;sketch=1;fillColor=#dae8fc;strokeColor=#6c8ebf;" vertex="1" parent="1">
          <mxGeometry x="20" y="540" width="140" height="200" as="geometry" />
        </mxCell>
        <mxCell id="IBMUOrXllXBi6DZzjjCA-22" value="" style="edgeStyle=orthogonalEdgeStyle;rounded=1;sketch=1;orthogonalLoop=1;jettySize=auto;html=1;" edge="1" parent="1" source="IBMUOrXllXBi6DZzjjCA-19" target="IBMUOrXllXBi6DZzjjCA-21">
          <mxGeometry relative="1" as="geometry" />
        </mxCell>
        <mxCell id="IBMUOrXllXBi6DZzjjCA-19" value="暂存区" style="whiteSpace=wrap;html=1;rounded=0;sketch=1;" vertex="1" parent="1">
          <mxGeometry x="250" y="610" width="120" height="60" as="geometry" />
        </mxCell>
        <mxCell id="IBMUOrXllXBi6DZzjjCA-31" value="" style="edgeStyle=orthogonalEdgeStyle;rounded=1;sketch=1;orthogonalLoop=1;jettySize=auto;html=1;" edge="1" parent="1" source="IBMUOrXllXBi6DZzjjCA-21" target="IBMUOrXllXBi6DZzjjCA-30">
          <mxGeometry relative="1" as="geometry" />
        </mxCell>
        <mxCell id="IBMUOrXllXBi6DZzjjCA-33" value="" style="edgeStyle=orthogonalEdgeStyle;rounded=1;sketch=1;orthogonalLoop=1;jettySize=auto;html=1;" edge="1" parent="1" source="IBMUOrXllXBi6DZzjjCA-21" target="IBMUOrXllXBi6DZzjjCA-32">
          <mxGeometry relative="1" as="geometry" />
        </mxCell>
        <mxCell id="IBMUOrXllXBi6DZzjjCA-21" value="本地仓库&lt;br&gt;（local repository）" style="whiteSpace=wrap;html=1;rounded=0;sketch=1;aspect=fixed;fillColor=#fff2cc;strokeColor=#d6b656;" vertex="1" parent="1">
          <mxGeometry x="452" y="540" width="140" height="200" as="geometry" />
        </mxCell>
        <mxCell id="IBMUOrXllXBi6DZzjjCA-23" value="&amp;nbsp;git add" style="text;html=1;align=center;verticalAlign=middle;resizable=0;points=[];autosize=1;" vertex="1" parent="1">
          <mxGeometry x="180" y="617" width="50" height="20" as="geometry" />
        </mxCell>
        <mxCell id="IBMUOrXllXBi6DZzjjCA-24" value="git commit" style="text;html=1;align=center;verticalAlign=middle;resizable=0;points=[];autosize=1;" vertex="1" parent="1">
          <mxGeometry x="382" y="617" width="70" height="20" as="geometry" />
        </mxCell>
        <mxCell id="IBMUOrXllXBi6DZzjjCA-42" value="" style="edgeStyle=orthogonalEdgeStyle;rounded=1;sketch=1;orthogonalLoop=1;jettySize=auto;html=1;" edge="1" parent="1" source="IBMUOrXllXBi6DZzjjCA-28">
          <mxGeometry relative="1" as="geometry">
            <mxPoint x="305.5" y="767" as="targetPoint" />
          </mxGeometry>
        </mxCell>
        <mxCell id="IBMUOrXllXBi6DZzjjCA-28" value="" style="shape=curlyBracket;whiteSpace=wrap;html=1;rounded=1;sketch=1;direction=north;" vertex="1" parent="1">
          <mxGeometry x="170" y="700" width="271" height="20" as="geometry" />
        </mxCell>
        <mxCell id="IBMUOrXllXBi6DZzjjCA-29" value="git merge 流程" style="text;html=1;align=center;verticalAlign=middle;resizable=0;points=[];autosize=1;" vertex="1" parent="1">
          <mxGeometry x="310" y="710" width="90" height="20" as="geometry" />
        </mxCell>
        <mxCell id="IBMUOrXllXBi6DZzjjCA-37" value="" style="edgeStyle=orthogonalEdgeStyle;rounded=1;sketch=1;orthogonalLoop=1;jettySize=auto;html=1;" edge="1" parent="1" source="IBMUOrXllXBi6DZzjjCA-30" target="IBMUOrXllXBi6DZzjjCA-32">
          <mxGeometry relative="1" as="geometry" />
        </mxCell>
        <mxCell id="IBMUOrXllXBi6DZzjjCA-44" value="" style="edgeStyle=orthogonalEdgeStyle;rounded=1;sketch=1;orthogonalLoop=1;jettySize=auto;html=1;" edge="1" parent="1" source="IBMUOrXllXBi6DZzjjCA-30" target="IBMUOrXllXBi6DZzjjCA-43">
          <mxGeometry relative="1" as="geometry" />
        </mxCell>
        <mxCell id="IBMUOrXllXBi6DZzjjCA-30" value="master分支" style="ellipse;whiteSpace=wrap;html=1;rounded=0;strokeColor=#d6b656;fillColor=#fff2cc;sketch=1;" vertex="1" parent="1">
          <mxGeometry x="390" y="780" width="90" height="60" as="geometry" />
        </mxCell>
        <mxCell id="IBMUOrXllXBi6DZzjjCA-32" value="staging分支" style="ellipse;whiteSpace=wrap;html=1;rounded=0;strokeColor=#d6b656;fillColor=#fff2cc;sketch=1;" vertex="1" parent="1">
          <mxGeometry x="570" y="780" width="80" height="60" as="geometry" />
        </mxCell>
        <mxCell id="IBMUOrXllXBi6DZzjjCA-34" value="HEAD" style="rounded=1;whiteSpace=wrap;html=1;arcSize=40;fontColor=#000000;fillColor=#ffffc0;strokeColor=#ff0000;sketch=1;" vertex="1" parent="1">
          <mxGeometry x="441" y="820" width="50" height="20" as="geometry" />
        </mxCell>
        <mxCell id="IBMUOrXllXBi6DZzjjCA-38" value="git checkout" style="text;html=1;align=center;verticalAlign=middle;resizable=0;points=[];autosize=1;" vertex="1" parent="1">
          <mxGeometry x="483" y="782" width="80" height="20" as="geometry" />
        </mxCell>
        <mxCell id="IBMUOrXllXBi6DZzjjCA-48" value="" style="edgeStyle=orthogonalEdgeStyle;rounded=1;sketch=1;orthogonalLoop=1;jettySize=auto;html=1;" edge="1" parent="1" source="IBMUOrXllXBi6DZzjjCA-43" target="IBMUOrXllXBi6DZzjjCA-47">
          <mxGeometry relative="1" as="geometry" />
        </mxCell>
        <mxCell id="IBMUOrXllXBi6DZzjjCA-43" value="master分支" style="ellipse;whiteSpace=wrap;html=1;rounded=0;strokeColor=#d6b656;fillColor=#fff2cc;sketch=1;" vertex="1" parent="1">
          <mxGeometry x="390" y="920" width="90" height="60" as="geometry" />
        </mxCell>
        <mxCell id="IBMUOrXllXBi6DZzjjCA-45" value="git checkout staging" style="text;html=1;align=center;verticalAlign=middle;resizable=0;points=[];autosize=1;" vertex="1" parent="1">
          <mxGeometry x="441" y="860" width="120" height="20" as="geometry" />
        </mxCell>
        <mxCell id="IBMUOrXllXBi6DZzjjCA-47" value="staging分支" style="ellipse;whiteSpace=wrap;html=1;rounded=0;strokeColor=#d6b656;fillColor=#fff2cc;sketch=1;" vertex="1" parent="1">
          <mxGeometry x="560" y="920" width="90" height="60" as="geometry" />
        </mxCell>
        <mxCell id="IBMUOrXllXBi6DZzjjCA-49" value="HEAD" style="rounded=1;whiteSpace=wrap;html=1;arcSize=40;fontColor=#000000;fillColor=#ffffc0;strokeColor=#ff0000;sketch=1;" vertex="1" parent="1">
          <mxGeometry x="610" y="960" width="50" height="20" as="geometry" />
        </mxCell>
        <mxCell id="IBMUOrXllXBi6DZzjjCA-50" value="git merge --abort" style="html=1;sketch=1;" vertex="1" parent="1">
          <mxGeometry x="250" y="770" width="110" height="50" as="geometry" />
        </mxCell>
      </root>
    </mxGraphModel>
  </diagram>
</mxfile>
